solid
 facet normal -0.368514 -0.234692 0.899509
  outer loop
   vertex 0.05000000447 0.009475217201 0.1408888549 
   vertex -0.05585040897 0.07755830139 0.1152873486 
   vertex 0.03244876489 -0.04410011321 0.119719997 
  endloop
 endfacet
 facet normal -0.368514 -0.234692 -0.899509
  outer loop
   vertex 0.03244876489 -0.04410011321 -0.1070487946 
   vertex -0.05585040897 0.07755830139 -0.1026161462 
   vertex 0.05000000447 0.009475217201 -0.1282176524 
  endloop
 endfacet
 facet normal 0.000000 -1.000000 0.000000
  outer loop
   vertex 0.03244876489 -0.04410011321 0.119719997 
   vertex -0.03712909296 -0.04410011321 -0.1070487946 
   vertex 0.03244876489 -0.04410011321 -0.1070487946 
  endloop
 endfacet
 facet normal 0.950305 -0.311319 0.000000
  outer loop
   vertex 0.03244876489 -0.04410011321 -0.1070487946 
   vertex 0.05000000447 0.009475217201 -0.1282176524 
   vertex 0.03244876489 -0.04410011321 0.119719997 
  endloop
 endfacet
 facet normal -0.988366 -0.152094 0.000000
  outer loop
   vertex -0.05585040897 0.07755830139 0.1152873486 
   vertex -0.05585040897 0.07755830139 -0.1026161462 
   vertex -0.03712909296 -0.04410011321 -0.1070487946 
  endloop
 endfacet
 facet normal 0.245851 0.969308 0.000000
  outer loop
   vertex 0.0951674208 0.1248342618 -0.1011168063 
   vertex -0.08273088187 0.1699556708 0.1137880087 
   vertex 0.0951674208 0.1248342618 0.1137880087 
  endloop
 endfacet
 facet normal -0.955816 0.293966 0.000000
  outer loop
   vertex -0.1046159044 0.09879759699 -0.1011168063 
   vertex -0.08273088187 0.1699556708 0.1137880087 
   vertex -0.08273088187 0.1699556708 -0.1011168063 
  endloop
 endfacet
 facet normal -0.399310 -0.916816 0.000000
  outer loop
   vertex -0.05585040897 0.07755830139 -0.1026161462 
   vertex -0.05585040897 0.07755830139 0.1152873486 
   vertex -0.1046159044 0.09879759699 -0.1011168063 
  endloop
 endfacet
 facet normal -0.150236 -0.277965 -0.948770
  outer loop
   vertex 0.08595082164 0.08830191195 -0.1282176524 
   vertex -0.05585040897 0.07755830139 -0.1026161462 
   vertex -0.1046159044 0.09879759699 -0.1011168063 
  endloop
 endfacet
 facet normal -0.150236 -0.277965 0.948770
  outer loop
   vertex -0.05585040897 0.07755830139 0.1152873486 
   vertex 0.08595082164 0.08830191195 0.1408888549 
   vertex -0.1046159044 0.09879759699 0.1137880087 
  endloop
 endfacet
 facet normal 0.000000 0.000000 1.000000
  outer loop
   vertex 0.08595082164 0.08830191195 0.1408888549 
   vertex 0.1512968391 0.009475217201 0.1408888549 
   vertex 0.1512968391 0.08830191195 0.1408888549 
  endloop
 endfacet
 facet normal 0.000000 1.000000 0.000000
  outer loop
   vertex 0.08595082164 0.08830191195 0.1408888549 
   vertex 0.1512968391 0.08830191195 -0.1282176524 
   vertex 0.08595082164 0.08830191195 -0.1282176524 
  endloop
 endfacet
 facet normal 0.000000 0.000000 -1.000000
  outer loop
   vertex 0.08595082164 0.08830191195 -0.1282176524 
   vertex 0.1512968391 0.08830191195 -0.1282176524 
   vertex 0.1512968391 0.009475217201 -0.1282176524 
  endloop
 endfacet
 facet normal 0.000000 -1.000000 0.000000
  outer loop
   vertex 0.05000000447 0.009475217201 -0.1282176524 
   vertex 0.1512968391 0.009475217201 -0.1282176524 
   vertex 0.1512968391 0.009475217201 0.1408888549 
  endloop
 endfacet
 facet normal 1.000000 0.000000 0.000000
  outer loop
   vertex 0.1512968391 0.009475217201 0.1408888549 
   vertex 0.1512968391 0.009475217201 -0.1282176524 
   vertex 0.1512968391 0.08830191195 -0.1282176524 
  endloop
 endfacet
 facet normal 0.969619 -0.244621 0.000000
  outer loop
   vertex 0.08595082164 0.08830191195 0.1408888549 
   vertex 0.0951674208 0.1248342618 -0.1011168063 
   vertex 0.0951674208 0.1248342618 0.1137880087 
  endloop
 endfacet
 facet normal 0.000000 0.000000 1.000000
  outer loop
   vertex -0.1046159044 0.09879759699 0.1137880087 
   vertex 0.0951674208 0.1248342618 0.1137880087 
   vertex -0.08273088187 0.1699556708 0.1137880087 
  endloop
 endfacet
 facet normal 0.000000 0.000000 -1.000000
  outer loop
   vertex -0.08273088187 0.1699556708 -0.1011168063 
   vertex 0.0951674208 0.1248342618 -0.1011168063 
   vertex -0.1046159044 0.09879759699 -0.1011168063 
  endloop
 endfacet
 facet normal -0.183178 0.083543 0.979524
  outer loop
   vertex -0.05585040897 0.07755830139 0.1152873486 
   vertex 0.05000000447 0.009475217201 0.1408888549 
   vertex 0.08595082164 0.08830191195 0.1408888549 
  endloop
 endfacet
 facet normal -0.183178 0.083543 -0.979524
  outer loop
   vertex 0.05000000447 0.009475217201 -0.1282176524 
   vertex -0.05585040897 0.07755830139 -0.1026161462 
   vertex 0.08595082164 0.08830191195 -0.1282176524 
  endloop
 endfacet
 facet normal 0.000000 0.000000 -1.000000
  outer loop
   vertex 0.08595082164 0.08830191195 -0.1282176524 
   vertex 0.1512968391 0.009475217201 -0.1282176524 
   vertex 0.05000000447 0.009475217201 -0.1282176524 
  endloop
 endfacet
 facet normal 0.000000 0.000000 1.000000
  outer loop
   vertex 0.05000000447 0.009475217201 0.1408888549 
   vertex 0.1512968391 0.009475217201 0.1408888549 
   vertex 0.08595082164 0.08830191195 0.1408888549 
  endloop
 endfacet
 facet normal 0.969619 -0.244621 0.000000
  outer loop
   vertex 0.08595082164 0.08830191195 0.1408888549 
   vertex 0.08595082164 0.08830191195 -0.1282176524 
   vertex 0.0951674208 0.1248342618 -0.1011168063 
  endloop
 endfacet
 facet normal 0.245851 0.969308 0.000000
  outer loop
   vertex -0.08273088187 0.1699556708 -0.1011168063 
   vertex -0.08273088187 0.1699556708 0.1137880087 
   vertex 0.0951674208 0.1248342618 -0.1011168063 
  endloop
 endfacet
 facet normal 0.000000 1.000000 0.000000
  outer loop
   vertex 0.08595082164 0.08830191195 0.1408888549 
   vertex 0.1512968391 0.08830191195 0.1408888549 
   vertex 0.1512968391 0.08830191195 -0.1282176524 
  endloop
 endfacet
 facet normal 1.000000 0.000000 0.000000
  outer loop
   vertex 0.1512968391 0.009475217201 0.1408888549 
   vertex 0.1512968391 0.08830191195 -0.1282176524 
   vertex 0.1512968391 0.08830191195 0.1408888549 
  endloop
 endfacet
 facet normal 0.000000 -1.000000 0.000000
  outer loop
   vertex 0.05000000447 0.009475217201 -0.1282176524 
   vertex 0.1512968391 0.009475217201 0.1408888549 
   vertex 0.05000000447 0.009475217201 0.1408888549 
  endloop
 endfacet
 facet normal 0.950305 -0.311319 0.000000
  outer loop
   vertex 0.03244876489 -0.04410011321 0.119719997 
   vertex 0.05000000447 0.009475217201 -0.1282176524 
   vertex 0.05000000447 0.009475217201 0.1408888549 
  endloop
 endfacet
 facet normal 0.000000 -1.000000 0.000000
  outer loop
   vertex -0.03712909296 -0.04410011321 0.119719997 
   vertex -0.03712909296 -0.04410011321 -0.1070487946 
   vertex 0.03244876489 -0.04410011321 0.119719997 
  endloop
 endfacet
 facet normal -0.988366 -0.152094 0.000000
  outer loop
   vertex -0.05585040897 0.07755830139 0.1152873486 
   vertex -0.03712909296 -0.04410011321 -0.1070487946 
   vertex -0.03712909296 -0.04410011321 0.119719997 
  endloop
 endfacet
 facet normal -0.399309 -0.916816 0.000000
  outer loop
   vertex -0.1046159044 0.09879759699 -0.1011168063 
   vertex -0.05585040897 0.07755830139 0.1152873486 
   vertex -0.1046159044 0.09879759699 0.1137880087 
  endloop
 endfacet
 facet normal -0.955816 0.293966 0.000000
  outer loop
   vertex -0.1046159044 0.09879759699 -0.1011168063 
   vertex -0.1046159044 0.09879759699 0.1137880087 
   vertex -0.08273088187 0.1699556708 0.1137880087 
  endloop
 endfacet
 facet normal -0.079070 0.606718 0.790975
  outer loop
   vertex 0.08595082164 0.08830191195 0.1408888549 
   vertex 0.0951674208 0.1248342618 0.1137880087 
   vertex -0.1046159044 0.09879759699 0.1137880087 
  endloop
 endfacet
 facet normal -0.079070 0.606718 -0.790975
  outer loop
   vertex -0.1046159044 0.09879759699 -0.1011168063 
   vertex 0.0951674208 0.1248342618 -0.1011168063 
   vertex 0.08595082164 0.08830191195 -0.1282176524 
  endloop
 endfacet
 facet normal 0.000000 0.036411 -0.999337
  outer loop
   vertex -0.03712909296 -0.04410011321 -0.1070487946 
   vertex -0.05585040897 0.07755830139 -0.1026161462 
   vertex 0.03244876489 -0.04410011321 -0.1070487946 
  endloop
 endfacet
 facet normal 0.000000 0.036411 0.999337
  outer loop
   vertex 0.03244876489 -0.04410011321 0.119719997 
   vertex -0.05585040897 0.07755830139 0.1152873486 
   vertex -0.03712909296 -0.04410011321 0.119719997 
  endloop
 endfacet
endsolid
